<?xml version="1.0" encoding="utf-8"?>
<!-- Generator: Adobe Illustrator 26.3.1, SVG Export Plug-In . SVG Version: 6.00 Build 0)  -->
<svg version="1.1" id="Layer_1" xmlns="http://www.w3.org/2000/svg" xmlns:xlink="http://www.w3.org/1999/xlink" x="0px" y="0px"
	 viewBox="0 0 64 64" style="enable-background:new 0 0 64 64;" xml:space="preserve">
<style type="text/css">
	.st0{fill:#094C7E;}
</style>
<g id="atmC4o_00000129893501791478005710000016025796636630315674_">
	<g>
		<path class="st0" d="M14.94,20.35c11.14,0,22.17,0,33.32,0c-0.18-0.23-0.3-0.4-0.44-0.57c-3.87-4.72-7.74-9.45-11.62-14.17
			c-0.74-0.9-1.14-1.9-0.75-3.07c0.67-2.01,3.22-2.48,4.65-0.83c1.48,1.72,2.88,3.51,4.31,5.28c3.48,4.29,6.96,8.58,10.43,12.88
			c0.29,0.36,0.57,0.52,1.04,0.5c1.08-0.04,2.17-0.03,3.25-0.01c3.05,0.05,5.36,2.8,4.78,5.8c-1.29,6.68-2.64,13.36-3.96,20.04
			c-0.73,3.68-1.47,7.35-2.18,11.03c-0.6,3.07-2.33,5.1-5.4,5.88c-0.56,0.14-1.16,0.18-1.73,0.18c-12.43,0.01-24.85,0.02-37.28,0
			c-3.09,0-5.4-1.39-6.6-4.26c-0.55-1.31-0.74-2.77-1.02-4.17C3.86,45.5,2.01,36.12,0.14,26.75c-0.51-2.58,0.39-4.7,2.57-5.78
			c0.51-0.25,1.1-0.35,1.67-0.47c0.28-0.06,0.58-0.03,0.87-0.04c0.89-0.02,1.91,0.22,2.64-0.13c0.72-0.34,1.15-1.27,1.7-1.95
			c4.4-5.45,8.8-10.9,13.2-16.35c0.79-0.98,1.76-1.55,3.05-1.27c1.95,0.43,2.73,2.75,1.44,4.36c-2.51,3.12-5.04,6.21-7.57,9.32
			c-1.47,1.81-2.95,3.62-4.42,5.43C15.19,20,15.1,20.13,14.94,20.35z M23.86,42.2C23.86,42.2,23.86,42.2,23.86,42.2
			c0-1.79,0.05-3.59-0.02-5.37c-0.02-0.61-0.23-1.29-0.55-1.8c-0.63-1.01-1.88-1.36-2.97-1c-1.2,0.39-1.92,1.43-1.92,2.84
			c-0.01,3.52-0.01,7.04,0,10.56c0,0.37,0.05,0.75,0.16,1.11c0.39,1.27,1.64,2.03,2.97,1.86c1.29-0.16,2.31-1.31,2.33-2.69
			C23.88,45.87,23.86,44.03,23.86,42.2z M29.25,42.12c0,1.77-0.02,3.54,0.01,5.31c0.01,0.49,0.1,1.01,0.29,1.45
			c0.52,1.15,1.81,1.75,3.01,1.49c1.28-0.29,2.15-1.4,2.15-2.85c0.01-3.56,0.02-7.12-0.01-10.69c0-0.46-0.11-0.96-0.3-1.38
			c-0.51-1.14-1.79-1.75-2.94-1.5c-1.3,0.28-2.19,1.36-2.21,2.74C29.23,38.49,29.25,40.3,29.25,42.12z M45.5,42.14
			c0-1.75,0.01-3.5,0-5.25c-0.01-1.74-1.18-3.02-2.75-3.01c-1.55,0.01-2.72,1.27-2.72,2.97c-0.01,3.54-0.01,7.08,0.01,10.62
			c0,0.47,0.1,0.96,0.29,1.39c0.52,1.15,1.81,1.76,3,1.5c1.24-0.27,2.14-1.37,2.16-2.72C45.52,45.81,45.5,43.98,45.5,42.14z"/>
	</g>
</g>
</svg>
