<?xml version="1.0" encoding="UTF-8" standalone="no"?>
<!-- Created with Inkscape (http://www.inkscape.org/) -->

<svg
   width="11.906586mm"
   height="11.90625mm"
   viewBox="0 0 11.906586 11.90625"
   version="1.1"
   id="svg890"
   inkscape:version="1.2.1 (9c6d41e4, 2022-07-14)"
   sodipodi:docname="edg_icon.svg"
   xmlns:inkscape="http://www.inkscape.org/namespaces/inkscape"
   xmlns:sodipodi="http://sodipodi.sourceforge.net/DTD/sodipodi-0.dtd"
   xmlns="http://www.w3.org/2000/svg"
   xmlns:svg="http://www.w3.org/2000/svg">
  <sodipodi:namedview
     id="namedview892"
     pagecolor="#ffffff"
     bordercolor="#000000"
     borderopacity="0.25"
     inkscape:showpageshadow="2"
     inkscape:pageopacity="0.0"
     inkscape:pagecheckerboard="0"
     inkscape:deskcolor="#d1d1d1"
     inkscape:document-units="mm"
     showgrid="false"
     inkscape:zoom="7.1912266"
     inkscape:cx="562.5605"
     inkscape:cy="393.88274"
     inkscape:window-width="1390"
     inkscape:window-height="1035"
     inkscape:window-x="0"
     inkscape:window-y="23"
     inkscape:window-maximized="0"
     inkscape:current-layer="layer1" />
  <defs
     id="defs887" />
  <g
     inkscape:label="Layer 1"
     inkscape:groupmode="layer"
     id="layer1"
     transform="translate(-134.97341,-97.444005)">
    <g
       id="g621"
       transform="matrix(0.26458333,0,0,0.26458333,134.10823,97.444006)"
       inkscape:export-filename="g621.svg"
       inkscape:export-xdpi="96"
       inkscape:export-ydpi="96">
		<path
   class="st1"
   d="M 47.37,20.33 27.94,0.9 c -1.2,-1.2 -3.15,-1.2 -4.35,0 L 4.17,20.33 c -1.2,1.2 -1.2,3.15 0,4.35 L 23.6,44.1 c 1.2,1.2 3.15,1.2 4.35,0 L 47.38,24.67 c 1.19,-1.2 1.19,-3.14 -0.01,-4.34 z"
   id="path597"
   style="fill:#00bfda" />

		<g
   id="g619">
			<g
   id="g603">
				<path
   class="st2"
   d="m 20.89,24.83 c 1.29,0 2.33,-1.05 2.33,-2.33 0,-1.29 -1.05,-2.33 -2.33,-2.33 -1.4,0 -2.55,-1.14 -2.55,-2.55 0,-1.29 -1.05,-2.33 -2.33,-2.33 -1.29,0 -2.33,1.05 -2.33,2.33 0,1.29 1.05,2.33 2.33,2.33 1.4,0 2.54,1.14 2.54,2.54 0,1.4 -1.14,2.55 -2.54,2.55 -1.29,0 -2.33,1.05 -2.33,2.33 0,1.29 1.05,2.33 2.33,2.33 1.29,0 2.33,-1.05 2.33,-2.33 0.01,-1.4 1.15,-2.54 2.55,-2.54 z"
   id="path599"
   style="fill:#ffffff" />

				<path
   class="st2"
   d="m 35.52,19.96 c 1.29,0 2.33,-1.05 2.33,-2.33 0,-1.29 -1.05,-2.33 -2.33,-2.33 -1.29,0 -2.33,1.05 -2.33,2.33 0,1.4 -1.14,2.54 -2.55,2.54 -1.29,0 -2.33,1.05 -2.33,2.33 0,1.29 1.05,2.33 2.33,2.33 1.4,0 2.55,1.14 2.55,2.55 0,1.29 1.05,2.33 2.33,2.33 1.29,0 2.33,-1.05 2.33,-2.33 0,-1.29 -1.05,-2.33 -2.33,-2.33 -1.4,0 -2.54,-1.14 -2.54,-2.54 0,-1.41 1.14,-2.55 2.54,-2.55 z"
   id="path601"
   style="fill:#ffffff" />

			</g>

			<path
   class="st2"
   d="m 30.65,29.92 c -1.4,0 -2.54,-1.14 -2.54,-2.55 0,-1.29 -1.05,-2.33 -2.33,-2.33 -1.29,0 -2.33,1.05 -2.33,2.33 0,1.4 -1.14,2.55 -2.55,2.55 -1.29,0 -2.33,1.05 -2.33,2.33 0,1.29 1.05,2.33 2.33,2.33 1.29,0 2.33,-1.05 2.33,-2.33 0,-1.4 1.14,-2.54 2.54,-2.54 1.4,0 2.55,1.14 2.55,2.54 0,1.29 1.05,2.33 2.33,2.33 1.29,0 2.33,-1.05 2.33,-2.33 0,-1.28 -1.05,-2.33 -2.33,-2.33 z"
   id="path605"
   style="fill:#ffffff" />

			<circle
   class="st2"
   cx="40.400002"
   cy="22.5"
   r="2.3299999"
   id="circle607"
   style="fill:#ffffff" />

			<circle
   class="st2"
   cx="11.14"
   cy="22.5"
   r="2.3299999"
   id="circle609"
   style="fill:#ffffff" />

			<circle
   class="st2"
   cx="25.77"
   cy="37.139999"
   r="2.3299999"
   id="circle611"
   style="fill:#ffffff" />

			<g
   id="g617">
				<path
   class="st2"
   d="m 20.89,15.08 c 1.4,0 2.54,1.14 2.54,2.55 0,1.29 1.05,2.33 2.33,2.33 1.29,0 2.33,-1.05 2.33,-2.33 0,-1.4 1.14,-2.55 2.55,-2.55 1.29,0 2.33,-1.05 2.33,-2.33 0,-1.29 -1.05,-2.33 -2.33,-2.33 -1.29,0 -2.33,1.05 -2.33,2.33 0,1.4 -1.14,2.54 -2.54,2.54 -1.4,0 -2.55,-1.14 -2.55,-2.54 0,-1.29 -1.05,-2.33 -2.33,-2.33 -1.29,0 -2.33,1.05 -2.33,2.33 0,1.28 1.05,2.33 2.33,2.33 z"
   id="path613"
   style="fill:#ffffff" />

				<circle
   class="st2"
   cx="25.77"
   cy="7.8600001"
   r="2.3299999"
   id="circle615"
   style="fill:#ffffff" />

			</g>

		</g>

	</g>
  </g>
</svg>
