<?xml version="1.0" encoding="utf-8"?>
<!-- Generator: Adobe Illustrator 26.3.1, SVG Export Plug-In . SVG Version: 6.00 Build 0)  -->
<svg version="1.1" id="Layer_1" xmlns="http://www.w3.org/2000/svg" xmlns:xlink="http://www.w3.org/1999/xlink" x="0px" y="0px"
	 viewBox="0 0 40 40" style="enable-background:new 0 0 40 40;" xml:space="preserve">
<style type="text/css">
	.st0{fill:#B7B7B7;}
</style>
<path class="st0" d="M28.17,26.95l-3.13-3.13c1-1.32,1.6-2.96,1.6-4.75c0-4.35-3.54-7.89-7.89-7.89c-4.35,0-7.89,3.54-7.89,7.89
	c0,4.35,3.54,7.89,7.89,7.89c1.78,0,3.42-0.6,4.75-1.6l3.13,3.13c0.21,0.21,0.49,0.32,0.77,0.32s0.56-0.11,0.77-0.32
	C28.6,28.07,28.6,27.38,28.17,26.95z M13.05,19.08c0-3.15,2.56-5.71,5.71-5.71c3.15,0,5.71,2.56,5.71,5.71
	c0,1.53-0.61,2.92-1.6,3.95c-0.03,0.02-0.07,0.04-0.1,0.06s-0.04,0.07-0.06,0.1c-1.03,0.99-2.42,1.6-3.95,1.6
	C15.61,24.79,13.05,22.23,13.05,19.08z"/>
</svg>
