<?xml version="1.0" encoding="utf-8"?>
<!-- Generator: Adobe Illustrator 25.2.3, SVG Export Plug-In . SVG Version: 6.00 Build 0)  -->
<svg version="1.1" id="Layer_1" xmlns="http://www.w3.org/2000/svg" xmlns:xlink="http://www.w3.org/1999/xlink" x="0px" y="0px"
	 viewBox="0 0 1500 1500" style="enable-background:new 0 0 1500 1500;" xml:space="preserve">
<style type="text/css">
	.st0{fill:#094C7E;}
	.st1{fill:#F58220;}
</style>
<g>
	<g>
		<g>
			<path class="st0" d="M563.24,839.34c49.25,0,89.32-40.09,89.32-89.37c0-49.25-40.07-89.32-89.32-89.32
				c-53.75,0-97.49-43.74-97.49-97.49c0-49.25-40.07-89.32-89.32-89.32c-49.28,0-89.37,40.06-89.37,89.32
				c0,49.27,40.09,89.37,89.37,89.37c53.73,0,97.44,43.71,97.44,97.44c0,53.75-43.71,97.49-97.44,97.49
				c-49.28,0-89.37,40.06-89.37,89.32c0,49.27,40.09,89.37,89.37,89.37c49.25,0,89.32-40.09,89.32-89.37
				C465.75,883.06,509.48,839.34,563.24,839.34z"/>
			<path class="st0" d="M1123.58,652.54c49.28,0,89.37-40.06,89.37-89.32c0-49.27-40.09-89.37-89.37-89.37
				c-49.25,0-89.32,40.09-89.32,89.37c0,53.72-43.74,97.44-97.49,97.44c-49.25,0-89.32,40.09-89.32,89.37
				c0,49.25,40.06,89.32,89.32,89.32c53.75,0,97.49,43.74,97.49,97.5c0,49.24,40.06,89.31,89.32,89.31
				c49.28,0,89.37-40.06,89.37-89.31c0-49.28-40.09-89.38-89.37-89.38c-53.73,0-97.44-43.71-97.44-97.44
				C1026.14,696.27,1069.85,652.54,1123.58,652.54z"/>
		</g>
		<path class="st0" d="M936.78,1034.34c-53.73,0-97.44-43.74-97.44-97.49c0-49.25-40.09-89.32-89.37-89.32
			c-49.25,0-89.32,40.06-89.32,89.32c0,53.75-43.74,97.49-97.49,97.49c-49.25,0-89.31,40.06-89.31,89.32
			c0,49.27,40.06,89.37,89.31,89.37c49.28,0,89.37-40.09,89.37-89.37c0-53.72,43.71-97.44,97.44-97.44
			c53.75,0,97.49,43.71,97.49,97.44c0,49.27,40.06,89.37,89.32,89.37c49.28,0,89.37-40.09,89.37-89.37
			C1026.15,1074.4,986.06,1034.34,936.78,1034.34z"/>
		<circle class="st0" cx="1310.55" cy="750" r="89.36"/>
		<circle class="st0" cx="189.45" cy="750" r="89.36"/>
		<circle class="st0" cx="750" cy="1310.64" r="89.36"/>
		<g>
			<path class="st1" d="M563.23,465.66c53.73,0,97.44,43.74,97.44,97.49c0,49.25,40.09,89.32,89.37,89.32
				c49.25,0,89.32-40.06,89.32-89.32c0-53.75,43.74-97.49,97.49-97.49c49.25,0,89.32-40.06,89.32-89.32
				c0-49.27-40.06-89.37-89.32-89.37c-49.28,0-89.37,40.09-89.37,89.37c0,53.72-43.71,97.44-97.44,97.44
				c-53.75,0-97.49-43.71-97.49-97.44c0-49.27-40.07-89.37-89.32-89.37c-49.28,0-89.37,40.09-89.37,89.37
				C473.86,425.6,513.95,465.66,563.23,465.66z"/>
			<circle class="st1" cx="750" cy="189.36" r="89.36"/>
		</g>
	</g>
</g>
</svg>
