<?xml version="1.0" encoding="utf-8"?>
<!-- Generator: Adobe Illustrator 26.3.1, SVG Export Plug-In . SVG Version: 6.00 Build 0)  -->
<svg version="1.1" id="Layer_1" xmlns="http://www.w3.org/2000/svg" xmlns:xlink="http://www.w3.org/1999/xlink" x="0px" y="0px"
	 viewBox="0 0 64 64" style="enable-background:new 0 0 64 64;" xml:space="preserve">
<style type="text/css">
	.st0{fill:#094C7E;}
</style>
<g>
	<path class="st0" d="M32,0C14.32,0,0,14.32,0,32c0,17.68,14.32,32,32,32c17.66,0,32-14.32,32-32C64,14.32,49.66,0,32,0z
		 M31.98,16.34c5.26,0,9.5,4.22,9.5,9.45s-4.24,9.48-9.5,9.48c-5.21,0-9.43-4.24-9.43-9.48S26.76,16.34,31.98,16.34z M38.09,55.68
		c-0.81,0.23-1.62,0.42-2.46,0.51c-0.74,0.12-1.46,0.19-2.18,0.23c-0.49,0.02-1,0.05-1.48,0.05c-0.49,0-0.97-0.02-1.46-0.05
		c-0.74-0.05-1.44-0.12-2.16-0.23c-0.83-0.09-1.69-0.28-2.48-0.51c-0.39-0.09-0.79-0.18-1.16-0.3c-0.79-0.26-1.51-0.53-2.25-0.83
		c-0.35-0.14-0.69-0.28-1.04-0.46c-2.36-1.14-4.52-2.66-6.4-4.45c2.94-6.4,9.43-10.84,16.94-10.84c7.53,0,14,4.43,17.01,10.8
		C45.97,52.48,42.24,54.62,38.09,55.68z"/>
</g>
</svg>
